<svg width="64" height="68" viewBox="0 0 64 68" fill="none" xmlns="http://www.w3.org/2000/svg">
<path d="M18.4833 0.163017C16.9829 0.455132 15.6551 1.53064 14.9115 3.04432L14.407 4.05344L14.3672 13.7729L14.3273 23.5056L8.65765 23.5454C3.2137 23.5853 2.96142 23.5985 2.3772 23.8641C1.4743 24.289 0.797124 24.9529 0.372231 25.8425L0.000449088 26.6392V37.2084C0.000449088 49.0789 -0.0526626 48.4946 0.996293 49.6498C1.30168 49.995 1.84608 50.4199 2.20458 50.6058L2.8552 50.9378L8.60454 50.9776L14.3406 51.0174V57.0323C14.3406 60.4979 14.3937 63.3526 14.4734 63.751C14.6725 64.7734 15.1107 65.5833 15.9339 66.4065C16.7572 67.2298 17.5671 67.6679 18.5895 67.8671C19.041 67.9468 26.5032 67.9999 39.2898 67.9999C61.0523 67.9999 60.1228 68.0264 61.4108 67.2696C62.2606 66.7783 63.0705 65.8754 63.522 64.946L63.9336 64.0829L63.9734 41.4839L64 18.8982L63.6415 18.4467C63.2299 17.9554 46.6856 0.760521 46.2076 0.348907C45.9155 0.0833435 45.7163 0.0833435 32.4782 0.0700684C25.0957 0.0567932 18.802 0.0966263 18.4833 0.163017ZM43.1537 11.3696V20.0666L43.5387 20.4915L43.9238 20.9297L52.7005 20.9695L61.4772 21.0093L61.4506 42.2275L61.4108 63.4456L61.0125 64.0829C60.7469 64.5078 60.415 64.8265 60.0299 65.0389L59.4324 65.3443L39.0508 65.3177L18.6559 65.2779L18.2177 64.9725C17.992 64.7999 17.6335 64.4414 17.4211 64.1891L17.0626 63.7111L17.0227 57.351L16.9829 51.0042H28.3222C40.7504 51.0042 40.4051 51.0307 41.5205 50.2075C42.2906 49.6365 42.835 48.7204 43.0209 47.6847C43.1271 47.0872 43.1537 43.7146 43.1271 36.7304L43.0873 26.6392L42.7421 25.9089C42.3039 24.9794 41.6931 24.3687 40.7636 23.9305L40.0334 23.5853L28.5214 23.5454L16.9962 23.5056V14.0783C16.9962 3.76133 16.9696 4.1995 17.7663 3.42938C18.6028 2.63271 17.8061 2.67254 31.0442 2.67254H43.1537V11.3696ZM52.1295 10.2011C55.6349 13.8393 58.8083 17.1587 59.2067 17.5704L59.9237 18.3405H52.7934H45.6765V10.9712C45.6765 6.92147 45.703 3.602 45.7296 3.602C45.7561 3.602 48.6375 6.57625 52.1295 10.2011ZM39.8209 26.3603C40.0201 26.4666 40.2458 26.7056 40.3388 26.9047C40.4583 27.157 40.4981 29.786 40.4981 37.2748C40.4981 48.0299 40.5114 47.8573 39.8475 48.2158C39.6749 48.3087 33.66 48.3486 21.524 48.3486H3.45271L3.02781 47.9635L2.58964 47.5785L2.54981 37.8325C2.52325 32.4815 2.54981 27.8342 2.58964 27.5155C2.65603 27.1172 2.80209 26.7985 3.05437 26.5462L3.42615 26.1745H21.4443C36.767 26.1745 39.5022 26.201 39.8209 26.3603Z" fill="white"/>
<path d="M7.70166 37.5003V43.1699H8.83028H9.95891V41.0587V38.9608L11.7913 38.8944C13.3846 38.8413 13.7033 38.8015 14.3406 38.4961C15.1373 38.1376 15.7879 37.4471 16.0402 36.677C16.2526 36.0928 16.2394 34.7783 16.0402 34.0878C15.8145 33.3575 14.8319 32.3484 14.1414 32.1625C13.8493 32.0696 12.2825 31.9634 10.6626 31.9235L7.70166 31.8439V37.5003ZM13.3846 34.3136C13.8759 34.7916 14.0219 35.4289 13.7564 36.053C13.4776 36.7169 12.9995 36.9027 11.3664 37.009L9.95891 37.1019V35.482V33.8488L11.4726 33.9019C12.9332 33.9418 13.0128 33.955 13.3846 34.3136Z" fill="white"/>
<path d="M18.1646 31.9509C18.0982 32.0173 18.0583 34.5666 18.0583 37.6338V43.1973L21.0193 43.1442C23.5289 43.091 24.06 43.0512 24.6176 42.8255C25.9587 42.2944 26.9811 40.9931 27.3529 39.3068C27.5653 38.3641 27.4591 36.0405 27.167 35.111C26.7288 33.7301 25.5604 32.5085 24.3255 32.15C23.7413 31.9774 18.2974 31.8048 18.1646 31.9509ZM23.7679 34.1683C24.5513 34.5666 24.9363 35.2703 25.0824 36.5849C25.2284 37.8064 25.0558 39.4396 24.7371 40.0902C24.3786 40.8205 23.7944 41.1392 22.6658 41.2454C22.1479 41.2985 21.4177 41.3118 21.0459 41.2852L20.382 41.2454L20.3422 37.5542L20.3156 33.8762H21.7496C22.9712 33.8762 23.2633 33.916 23.7679 34.1683Z" fill="white"/>
<path d="M29.4773 37.5268V43.1699H30.6059H31.7345V40.7799V38.3899H34.0582H36.3818V37.4604V36.531H34.0582H31.7345V35.2032V33.8754H34.4565H37.1785V32.8795V31.8837H33.3279H29.4773V37.5268Z" fill="white"/>
</svg>
