<svg width="202" height="56" viewBox="0 0 202 56" fill="none" xmlns="http://www.w3.org/2000/svg">
<path d="M0.6 -3.8147e-06H27.08C33.2133 -3.8147e-06 38.6533 1.14666 43.4 3.44C48.1467 5.73333 51.8267 8.98666 54.44 13.2C57.0533 17.4133 58.36 22.3467 58.36 28C58.36 33.6533 57.0533 38.5867 54.44 42.8C51.8267 47.0133 48.1467 50.2667 43.4 52.56C38.6533 54.8533 33.2133 56 27.08 56H0.6V-3.8147e-06ZM26.44 43.36C31.24 43.36 35.08 42 37.96 39.28C40.8933 36.56 42.36 32.8 42.36 28C42.36 23.2 40.8933 19.44 37.96 16.72C35.08 14 31.24 12.64 26.44 12.64H16.44V43.36H26.44ZM117.254 56L117.094 26.32L102.694 50.48H95.6538L81.3338 27.12V56H66.6938V-3.8147e-06H79.7338L99.4138 32.32L118.614 -3.8147e-06H131.654L131.814 56H117.254ZM180.542 45.12H156.862L152.462 56H136.302L161.022 -3.8147e-06H176.622L201.422 56H184.942L180.542 45.12ZM175.902 33.44L168.702 15.52L161.502 33.44H175.902Z" fill="white"/>
</svg>
