<svg viewBox="0 0 393 118" fill="none" xmlns="http://www.w3.org/2000/svg">
<rect x="-49.7776" y="19.7697" width="472" height="35" transform="rotate(5.28266 -49.7776 19.7697)" fill="white"/>
<path d="M20.0367 36.2979L26.3697 36.8835C27.8833 37.0234 29.1906 37.4389 30.2916 38.1298C31.4072 38.8088 32.2351 39.7021 32.7754 40.8099C33.329 41.9189 33.5413 43.1705 33.4124 44.5645C33.2835 45.9586 32.8453 47.1499 32.0978 48.1386C31.3635 49.1286 30.3852 49.8616 29.1628 50.3378C27.955 50.8019 26.5943 50.9639 25.0807 50.824L18.7478 50.2384L20.0367 36.2979ZM25.1663 48.1606C26.5604 48.2895 27.7046 48.0069 28.5989 47.313C29.5078 46.607 30.0236 45.5902 30.1464 44.2625C30.2691 42.9348 29.9479 41.8473 29.1827 40.9999C28.4319 40.1405 27.3595 39.6463 25.9655 39.5174L23.0181 39.2449L22.2189 47.888L25.1663 48.1606ZM47.8869 52.9327L48.6404 44.5665L43.9007 51.0778L42.4469 50.9434L38.9849 43.8545L38.2281 52.0396L35.201 51.7597L36.49 37.8192L39.1586 38.0659L43.5753 47.2114L49.5144 39.0235L52.1631 39.2684L50.914 53.2126L47.8869 52.9327ZM63.6785 51.38L57.2061 50.7816L55.6952 53.6547L52.3893 53.349L59.8917 39.983L63.0781 40.2776L68.0226 54.7945L64.637 54.4814L63.6785 51.38ZM62.8893 48.8366L61.1722 43.2949L58.4682 48.4278L62.8893 48.8366Z" fill="#626262"/>
<path d="M96.7097 43.3872L103.043 43.9728C104.556 44.1127 105.864 44.5282 106.965 45.2192C108.08 45.8981 108.908 46.7914 109.448 47.8992C110.002 49.0082 110.214 50.2598 110.085 51.6538C109.957 53.0479 109.518 54.2393 108.771 55.228C108.036 56.2179 107.058 56.9509 105.836 57.4271C104.628 57.8912 103.267 58.0533 101.754 57.9133L95.4207 57.3278L96.7097 43.3872ZM101.839 55.2499C103.233 55.3788 104.378 55.0963 105.272 54.4023C106.181 53.6963 106.697 52.6795 106.819 51.3518C106.942 50.0242 106.621 48.9366 105.856 48.0893C105.105 47.2298 104.033 46.7357 102.638 46.6068L99.691 46.3342L98.8919 54.9774L101.839 55.2499ZM124.56 60.022L125.313 51.6559L120.574 58.1671L119.12 58.0327L115.658 50.9439L114.901 59.129L111.874 58.8491L113.163 44.9085L115.832 45.1553L120.248 54.3008L126.187 46.1128L128.836 46.3577L127.587 60.3019L124.56 60.022ZM140.351 58.4693L133.879 57.8709L132.368 60.744L129.062 60.4383L136.565 47.0723L139.751 47.3669L144.696 61.8838L141.31 61.5708L140.351 58.4693ZM139.562 55.9259L137.845 50.3843L135.141 55.5171L139.562 55.9259Z" fill="#626262"/>
<path d="M173.383 50.4766L179.716 51.0621C181.229 51.2021 182.537 51.6175 183.638 52.3085C184.753 52.9874 185.581 53.8808 186.121 54.9886C186.675 56.0976 186.887 57.3491 186.758 58.7432C186.629 60.1372 186.191 61.3286 185.444 62.3173C184.709 63.3072 183.731 64.0403 182.509 64.5164C181.301 64.9805 179.94 65.1426 178.427 65.0027L172.094 64.4171L173.383 50.4766ZM178.512 62.3392C179.906 62.4681 181.051 62.1856 181.945 61.4917C182.854 60.7857 183.37 59.7688 183.492 58.4412C183.615 57.1135 183.294 56.026 182.529 55.1786C181.778 54.3191 180.705 53.825 179.311 53.6961L176.364 53.4236L175.565 62.0667L178.512 62.3392ZM201.233 67.1114L201.986 58.7452L197.247 65.2565L195.793 65.122L192.331 58.0332L191.574 66.2183L188.547 65.9384L189.836 51.9979L192.505 52.2446L196.921 61.3901L202.86 53.2021L205.509 53.447L204.26 67.3912L201.233 67.1114ZM217.024 65.5587L210.552 64.9602L209.041 67.8333L205.735 67.5276L213.238 54.1616L216.424 54.4562L221.369 68.9731L217.983 68.6601L217.024 65.5587ZM216.235 63.0152L214.518 57.4736L211.814 62.6064L216.235 63.0152Z" fill="#626262"/>
<path d="M250.056 57.5659L256.389 58.1514C257.902 58.2914 259.209 58.7068 260.31 59.3978C261.426 60.0767 262.254 60.9701 262.794 62.0779C263.348 63.1869 263.56 64.4384 263.431 65.8325C263.302 67.2265 262.864 68.4179 262.117 69.4066C261.382 70.3966 260.404 71.1296 259.182 71.6057C257.974 72.0698 256.613 72.2319 255.1 72.092L248.767 71.5064L250.056 57.5659ZM255.185 69.4285C256.579 69.5574 257.723 69.2749 258.618 68.581C259.527 67.875 260.042 66.8582 260.165 65.5305C260.288 64.2028 259.967 63.1153 259.201 62.2679C258.451 61.4085 257.378 60.9143 255.984 60.7854L253.037 60.5129L252.238 69.156L255.185 69.4285ZM277.906 74.2007L278.659 65.8345L273.92 72.3458L272.466 72.2114L269.004 65.1225L268.247 73.3076L265.22 73.0277L266.509 59.0872L269.177 59.3339L273.594 68.4794L279.533 60.2914L282.182 60.5363L280.933 74.4806L277.906 74.2007ZM293.697 72.648L287.225 72.0495L285.714 74.9226L282.408 74.617L289.911 61.2509L293.097 61.5456L298.041 76.0625L294.656 75.7494L293.697 72.648ZM292.908 70.1045L291.191 64.5629L288.487 69.6957L292.908 70.1045Z" fill="#626262"/>
<path d="M326.728 64.6552L333.061 65.2408C334.575 65.3807 335.882 65.7962 336.983 66.4871C338.099 67.1661 338.927 68.0594 339.467 69.1672C340.021 70.2762 340.233 71.5278 340.104 72.9218C339.975 74.3159 339.537 75.5072 338.79 76.4959C338.055 77.4859 337.077 78.2189 335.855 78.6951C334.647 79.1592 333.286 79.3212 331.773 79.1813L325.44 78.5957L326.728 64.6552ZM331.858 76.5179C333.252 76.6468 334.396 76.3642 335.291 75.6703C336.2 74.9643 336.715 73.9475 336.838 72.6198C336.961 71.2921 336.64 70.2046 335.874 69.3572C335.124 68.4978 334.051 68.0036 332.657 67.8747L329.71 67.6022L328.911 76.2453L331.858 76.5179ZM354.579 81.29L355.332 72.9238L350.593 79.4351L349.139 79.3007L345.677 72.2118L344.92 80.3969L341.893 80.117L343.182 66.1765L345.85 66.4232L350.267 75.5687L356.206 67.3808L358.855 67.6257L357.606 81.5699L354.579 81.29ZM370.37 79.7373L363.898 79.1389L362.387 82.012L359.081 81.7063L366.583 68.3403L369.77 68.6349L374.714 83.1518L371.329 82.8387L370.37 79.7373ZM369.581 77.1939L367.864 71.6522L365.16 76.7851L369.581 77.1939Z" fill="#626262"/>
<g filter="url(#filter0_d_374_525)">
<rect x="-52.8623" y="68.0692" width="472" height="35" transform="rotate(-6.45569 -52.8623 68.0692)" fill="white"/>
<path d="M18.8546 70.0486L25.1743 69.3335C26.6846 69.1626 28.0491 69.3034 29.2677 69.7559C30.4981 70.1937 31.4904 70.8999 32.2448 71.8746C33.0124 72.8478 33.4749 74.03 33.6324 75.4211C33.7898 76.8122 33.6031 78.0679 33.0723 79.188C32.5548 80.3066 31.7461 81.2233 30.6462 81.9382C29.558 82.6383 28.2587 83.0738 26.7484 83.2447L20.4287 83.9598L18.8546 70.0486ZM26.2903 80.6196C27.6814 80.4622 28.7442 79.9528 29.4787 79.0914C30.2249 78.2153 30.5231 77.1148 30.3732 75.7899C30.2232 74.465 29.6875 73.4656 28.7658 72.7916C27.856 72.1029 26.7055 71.8372 25.3144 71.9946L22.3731 72.3274L23.3491 80.9524L26.2903 80.6196ZM49.5066 80.6696L48.5422 72.3251L45.2264 79.6644L43.7757 79.8286L38.9439 73.5923L39.8681 81.7602L36.8473 82.102L35.2733 68.1908L37.9363 67.8895L44.1212 75.9451L48.2703 66.7201L50.9135 66.4211L52.5273 80.3278L49.5066 80.6696ZM64.652 75.9367L58.1932 76.6675L57.2984 79.7879L53.9995 80.1612L58.6258 65.5484L61.8055 65.1886L69.5999 78.396L66.2215 78.7783L64.652 75.9367ZM63.3619 73.607L60.5533 68.5306L58.95 74.1062L63.3619 73.607Z" fill="#626262"/>
<path d="M95.3663 61.3911L101.686 60.676C103.196 60.5051 104.561 60.6459 105.779 61.0985C107.01 61.5362 108.002 62.2425 108.757 63.2172C109.524 64.1904 109.987 65.3725 110.144 66.7636C110.301 68.1548 110.115 69.4104 109.584 70.5305C109.067 71.6491 108.258 72.5658 107.158 73.2807C106.07 73.9808 104.77 74.4163 103.26 74.5872L96.9404 75.3023L95.3663 61.3911ZM102.802 71.9621C104.193 71.8047 105.256 71.2953 105.99 70.4339C106.737 69.5578 107.035 68.4573 106.885 67.1324C106.735 65.8075 106.199 64.8081 105.278 64.1341C104.368 63.4454 103.217 63.1797 101.826 63.3371L98.8848 63.6699L99.8608 72.2949L102.802 71.9621ZM126.018 72.0121L125.054 63.6676L121.738 71.007L120.287 71.1711L115.456 64.9348L116.38 73.1027L113.359 73.4445L111.785 59.5333L114.448 59.232L120.633 67.2876L124.782 58.0626L127.425 57.7636L129.039 71.6703L126.018 72.0121ZM141.164 67.2792L134.705 68.01L133.81 71.1304L130.511 71.5037L135.138 56.8909L138.317 56.5311L146.112 69.7385L142.733 70.1208L141.164 67.2792ZM139.874 64.9495L137.065 59.8731L135.462 65.4487L139.874 64.9495Z" fill="#626262"/>
<path d="M171.878 52.7336L178.198 52.0185C179.708 51.8476 181.073 51.9884 182.291 52.441C183.522 52.8787 184.514 53.585 185.268 54.5597C186.036 55.5329 186.498 56.715 186.656 58.1062C186.813 59.4973 186.627 60.7529 186.096 61.873C185.578 62.9916 184.77 63.9084 183.67 64.6232C182.581 65.3234 181.282 65.7589 179.772 65.9298L173.452 66.6449L171.878 52.7336ZM179.314 63.3046C180.705 63.1472 181.768 62.6378 182.502 61.7764C183.248 60.9003 183.547 59.7998 183.397 58.4749C183.247 57.1501 182.711 56.1506 181.789 55.4766C180.879 54.7879 179.729 54.5223 178.338 54.6797L175.397 55.0125L176.372 63.6374L179.314 63.3046ZM202.53 63.3546L201.566 55.0101L198.25 62.3495L196.799 62.5136L191.967 56.2774L192.892 64.4452L189.871 64.787L188.297 50.8758L190.96 50.5745L197.145 58.6302L201.294 49.4052L203.937 49.1061L205.551 63.0128L202.53 63.3546ZM217.675 58.6217L211.217 59.3526L210.322 62.473L207.023 62.8462L211.649 48.2334L214.829 47.8736L222.623 61.081L219.245 61.4633L217.675 58.6217ZM216.385 56.292L213.577 51.2156L211.973 56.7912L216.385 56.292Z" fill="#626262"/>
<path d="M248.39 44.0761L254.71 43.3611C256.22 43.1902 257.584 43.331 258.803 43.7835C260.033 44.2213 261.026 44.9275 261.78 45.9022C262.548 46.8754 263.01 48.0575 263.168 49.4487C263.325 50.8398 263.138 52.0954 262.608 53.2155C262.09 54.3341 261.281 55.2509 260.181 55.9657C259.093 56.6659 257.794 57.1014 256.284 57.2723L249.964 57.9874L248.39 44.0761ZM255.826 54.6471C257.217 54.4897 258.279 53.9803 259.014 53.119C259.76 52.2428 260.058 51.1423 259.908 49.8175C259.759 48.4926 259.223 47.4931 258.301 46.8192C257.391 46.1304 256.241 45.8648 254.85 46.0222L251.908 46.355L252.884 54.9799L255.826 54.6471ZM279.042 54.6971L278.078 46.3527L274.762 53.692L273.311 53.8562L268.479 47.6199L269.403 55.7878L266.383 56.1296L264.809 42.2183L267.472 41.917L273.656 49.9727L277.806 40.7477L280.449 40.4486L282.063 54.3553L279.042 54.6971ZM294.187 49.9643L287.729 50.6951L286.834 53.8155L283.535 54.1888L288.161 39.5759L291.341 39.2161L299.135 52.4235L295.757 52.8058L294.187 49.9643ZM292.897 47.6345L290.089 42.5581L288.485 48.1337L292.897 47.6345Z" fill="#626262"/>
<path d="M324.902 35.4187L331.221 34.7036C332.732 34.5327 334.096 34.6735 335.315 35.126C336.545 35.5638 337.537 36.27 338.292 37.2447C339.059 38.2179 339.522 39.4001 339.679 40.7912C339.837 42.1823 339.65 43.4379 339.119 44.558C338.602 45.6767 337.793 46.5934 336.693 47.3083C335.605 48.0084 334.306 48.4439 332.795 48.6148L326.476 49.3299L324.902 35.4187ZM332.337 45.9897C333.728 45.8323 334.791 45.3229 335.526 44.4615C336.272 43.5854 336.57 42.4849 336.42 41.16C336.27 39.8351 335.734 38.8357 334.813 38.1617C333.903 37.473 332.752 37.2073 331.361 37.3647L328.42 37.6975L329.396 46.3225L332.337 45.9897ZM355.554 46.0397L354.589 37.6952L351.273 45.0345L349.823 45.1987L344.991 38.9624L345.915 47.1303L342.894 47.4721L341.32 33.5609L343.983 33.2595L350.168 41.3152L354.317 32.0902L356.96 31.7911L358.574 45.6979L355.554 46.0397ZM370.699 41.3068L364.24 42.0376L363.345 45.158L360.046 45.5313L364.673 30.9185L367.853 30.5587L375.647 43.7661L372.268 44.1483L370.699 41.3068ZM369.409 38.9771L366.6 33.9006L364.997 39.4763L369.409 38.9771Z" fill="#626262"/>
</g>
<defs>
<filter id="filter0_d_374_525" x="-67.8623" y="0" width="502.942" height="117.847" filterUnits="userSpaceOnUse" color-interpolation-filters="sRGB">
<feFlood flood-opacity="0" result="BackgroundImageFix"/>
<feColorMatrix in="SourceAlpha" type="matrix" values="0 0 0 0 0 0 0 0 0 0 0 0 0 0 0 0 0 0 127 0" result="hardAlpha"/>
<feOffset/>
<feGaussianBlur stdDeviation="7.5"/>
<feComposite in2="hardAlpha" operator="out"/>
<feColorMatrix type="matrix" values="0 0 0 0 0 0 0 0 0 0 0 0 0 0 0 0 0 0 0.25 0"/>
<feBlend mode="normal" in2="BackgroundImageFix" result="effect1_dropShadow_374_525"/>
<feBlend mode="normal" in="SourceGraphic" in2="effect1_dropShadow_374_525" result="shape"/>
</filter>
</defs>
</svg>
