<svg width="63" height="122" viewBox="0 0 63 122" fill="none" xmlns="http://www.w3.org/2000/svg">
<path d="M0.599998 120.344V110.168C0.599998 107.736 1.06933 105.592 2.008 103.736C2.92533 101.859 4.22667 100.408 5.912 99.384C7.59733 98.3387 9.56 97.816 11.8 97.816C14.04 97.816 16.0027 98.3387 17.688 99.384C19.3733 100.408 20.6853 101.859 21.624 103.736C22.5413 105.592 23 107.736 23 110.168V120.344H0.599998ZM18.744 110.424C18.744 108.184 18.1253 106.403 16.888 105.08C15.6293 103.736 13.9333 103.064 11.8 103.064C9.66667 103.064 7.98133 103.736 6.744 105.08C5.48533 106.403 4.856 108.184 4.856 110.424V115.16H18.744V110.424ZM23 53.2025L9.56 53.2345L20.632 59.8265V62.1625L9.848 68.7225H23V73.5865H0.599998V69.2985L14.52 60.9145L0.599998 52.6585L0.599998 48.4025L23 48.3385V53.2025ZM18.2 7.952V18.352L23 20.336V25.648L0.599998 15.664V10.544L23 0.528V5.968L18.2 7.952ZM14.264 9.584L5.688 13.136L14.264 16.688V9.584Z" fill="white"/>
<path d="M0.599998 120.344H-0.400002V121.344H0.599998V120.344ZM2.008 103.736L2.90045 104.187L2.90647 104.175L2.008 103.736ZM5.912 99.384L6.43128 100.239L6.43909 100.234L5.912 99.384ZM17.688 99.384L17.1609 100.234L17.1687 100.239L17.688 99.384ZM21.624 103.736L22.5205 103.293L22.5184 103.289L21.624 103.736ZM23 120.344V121.344H24V120.344H23ZM16.888 105.08L17.6183 104.397L17.6179 104.396L16.888 105.08ZM6.744 105.08L7.46842 105.769L7.47411 105.763L7.4797 105.757L6.744 105.08ZM4.856 115.16H3.856V116.16H4.856V115.16ZM18.744 115.16V116.16H19.744V115.16H18.744ZM1.6 120.344V110.168H-0.400002L-0.400002 120.344H1.6ZM1.6 110.168C1.6 107.866 2.04353 105.882 2.90037 104.187L1.11563 103.285C0.0951385 105.302 -0.400002 107.606 -0.400002 110.168H1.6ZM2.90647 104.175C3.74502 102.459 4.91942 101.157 6.43126 100.239L5.39274 98.5294C3.53392 99.6588 2.10564 101.258 1.10953 103.297L2.90647 104.175ZM6.43909 100.234C7.94635 99.2989 9.72151 98.816 11.8 98.816V96.816C9.39849 96.816 7.24831 97.3784 5.3849 98.5342L6.43909 100.234ZM11.8 98.816C13.8785 98.816 15.6536 99.2989 17.1609 100.234L18.2151 98.5342C16.3517 97.3784 14.2015 96.816 11.8 96.816V98.816ZM17.1687 100.239C18.6827 101.158 19.8695 102.463 20.7296 104.183L22.5184 103.289C21.5012 101.254 20.064 99.6575 18.2073 98.5294L17.1687 100.239ZM20.7275 104.179C21.5658 105.875 22 107.863 22 110.168H24C24 107.609 23.5168 105.309 22.5205 103.293L20.7275 104.179ZM22 110.168V120.344H24V110.168H22ZM23 119.344H0.599998V121.344H23V119.344ZM19.744 110.424C19.744 107.993 19.0676 105.946 17.6183 104.397L16.1577 105.763C17.183 106.859 17.744 108.375 17.744 110.424H19.744ZM17.6179 104.396C16.1397 102.818 14.162 102.064 11.8 102.064V104.064C13.7047 104.064 15.119 104.654 16.1581 105.764L17.6179 104.396ZM11.8 102.064C9.43842 102.064 7.46714 102.818 6.0083 104.403L7.4797 105.757C8.49552 104.654 9.89492 104.064 11.8 104.064V102.064ZM6.01958 104.391C4.54577 105.939 3.856 107.989 3.856 110.424H5.856C5.856 108.379 6.42489 106.866 7.46842 105.769L6.01958 104.391ZM3.856 110.424V115.16H5.856V110.424H3.856ZM4.856 116.16H18.744V114.16H4.856V116.16ZM19.744 115.16V110.424H17.744V115.16H19.744ZM23 53.2025L23.0024 54.2025L24 54.2001V53.2025H23ZM9.56 53.2345L9.55762 52.2345L5.9401 52.2431L9.04843 54.0937L9.56 53.2345ZM20.632 59.8265H21.632V59.2581L21.1436 58.9673L20.632 59.8265ZM20.632 62.1625L21.1517 63.0168L21.632 62.7247V62.1625H20.632ZM9.848 68.7225L9.32829 67.8682L6.27993 69.7225H9.848V68.7225ZM23 68.7225H24V67.7225H23V68.7225ZM23 73.5865V74.5865H24V73.5865H23ZM0.599998 73.5865H-0.400002V74.5865H0.599998V73.5865ZM0.599998 69.2985L0.0840559 68.4419L-0.400002 68.7334V69.2985H0.599998ZM14.52 60.9145L15.0359 61.7711L16.4692 60.9079L15.0301 60.0544L14.52 60.9145ZM0.599998 52.6585H-0.400002V53.2281L0.0898714 53.5186L0.599998 52.6585ZM0.599998 48.4025L0.597141 47.4025L-0.400002 47.4053V48.4025H0.599998ZM23 48.3385H24V47.3356L22.9971 47.3385L23 48.3385ZM22.9976 52.2025L9.55762 52.2345L9.56238 54.2345L23.0024 54.2025L22.9976 52.2025ZM9.04843 54.0937L20.1204 60.6857L21.1436 58.9673L10.0716 52.3753L9.04843 54.0937ZM19.632 59.8265V62.1625H21.632V59.8265H19.632ZM20.1123 61.3082L9.32829 67.8682L10.3677 69.5768L21.1517 63.0168L20.1123 61.3082ZM9.848 69.7225H23V67.7225H9.848V69.7225ZM22 68.7225V73.5865H24V68.7225H22ZM23 72.5865H0.599998V74.5865H23V72.5865ZM1.6 73.5865V69.2985H-0.400002L-0.400002 73.5865H1.6ZM1.11594 70.1551L15.0359 61.7711L14.0041 60.0579L0.0840559 68.4419L1.11594 70.1551ZM15.0301 60.0544L1.11013 51.7984L0.0898714 53.5186L14.0099 61.7746L15.0301 60.0544ZM1.6 52.6585L1.6 48.4025H-0.400002V52.6585H1.6ZM0.602856 49.4025L23.0029 49.3385L22.9971 47.3385L0.597141 47.4025L0.602856 49.4025ZM22 48.3385V53.2025H24V48.3385H22ZM18.2 7.952L17.818 7.02783L17.2 7.28328V7.952H18.2ZM18.2 18.352H17.2V19.0207L17.818 19.2762L18.2 18.352ZM23 20.336H24V19.6673L23.382 19.4118L23 20.336ZM23 25.648L22.5929 26.5614L24 27.1885V25.648H23ZM0.599998 15.664H-0.400002V16.3131L0.192892 16.5774L0.599998 15.664ZM0.599998 10.544L0.191804 9.6311L-0.400002 9.89573V10.544H0.599998ZM23 0.528H24V-1.01456L22.5918 -0.384895L23 0.528ZM23 5.968L23.382 6.89217L24 6.63673V5.968H23ZM14.264 9.584H15.264V8.08744L13.8813 8.66011L14.264 9.584ZM5.688 13.136L5.30534 12.2121L3.07469 13.136L5.30534 14.0599L5.688 13.136ZM14.264 16.688L13.8813 17.6119L15.264 18.1846V16.688H14.264ZM17.2 7.952V18.352H19.2V7.952H17.2ZM17.818 19.2762L22.618 21.2602L23.382 19.4118L18.582 17.4278L17.818 19.2762ZM22 20.336V25.648H24V20.336H22ZM23.4071 24.7346L1.0071 14.7506L0.192892 16.5774L22.5929 26.5614L23.4071 24.7346ZM1.6 15.664V10.544H-0.400002L-0.400002 15.664H1.6ZM1.00819 11.4569L23.4082 1.4409L22.5918 -0.384895L0.191804 9.6311L1.00819 11.4569ZM22 0.528V5.968H24V0.528H22ZM22.618 5.04383L17.818 7.02783L18.582 8.87617L23.382 6.89217L22.618 5.04383ZM13.8813 8.66011L5.30534 12.2121L6.07066 14.0599L14.6467 10.5079L13.8813 8.66011ZM5.30534 14.0599L13.8813 17.6119L14.6467 15.7641L6.07066 12.2121L5.30534 14.0599ZM15.264 16.688V9.584H13.264V16.688H15.264ZM50.448 105.208H49.448V106.208H50.448V105.208ZM50.448 100.472V99.472H49.448V100.472H50.448ZM59.536 100.472L60.3343 99.8698L60.0342 99.472H59.536V100.472ZM61.648 104.696L62.6041 104.403L61.648 104.696ZM60.912 115.8L61.7919 116.275L61.796 116.267L60.912 115.8ZM56.784 120.184L57.2924 121.045L57.2985 121.042L57.3046 121.038L56.784 120.184ZM44.848 120.184L44.332 121.041L44.335 121.042L44.848 120.184ZM40.72 115.768L41.6063 115.305L41.6021 115.297L40.72 115.768ZM40.208 104.088L39.2838 103.706L40.208 104.088ZM43.088 100.056L43.8228 99.3777L43.1663 98.6665L42.434 99.2995L43.088 100.056ZM46.16 103.384L46.8485 104.109L47.5636 103.43L46.8948 102.706L46.16 103.384ZM44.528 112.984L45.4085 112.51L44.528 112.984ZM47.056 115.576L47.5503 114.707L47.056 115.576ZM54.512 115.576L55.0063 116.445L54.512 115.576ZM57.072 113.016L57.9413 113.51L57.947 113.5L57.9525 113.49L57.072 113.016ZM57.008 105.208L57.8895 104.736L57.6067 104.208H57.008V105.208ZM51.448 105.208V100.472H49.448V105.208H51.448ZM50.448 101.472H59.536V99.472H50.448V101.472ZM58.7377 101.074C59.5782 102.188 60.2321 103.49 60.6919 104.989L62.6041 104.403C62.0826 102.702 61.3284 101.188 60.3343 99.8698L58.7377 101.074ZM60.6919 104.989C61.1544 106.497 61.384 108.009 61.384 109.528H63.384C63.384 107.804 63.1229 106.095 62.6041 104.403L60.6919 104.989ZM61.384 109.528C61.384 111.708 60.9252 113.636 60.028 115.333L61.796 116.267C62.8615 114.252 63.384 111.998 63.384 109.528H61.384ZM60.0322 115.325C59.111 117.03 57.857 118.358 56.2634 119.33L57.3046 121.038C59.2097 119.876 60.7076 118.282 61.7918 116.275L60.0322 115.325ZM56.2756 119.323C54.6711 120.27 52.8545 120.752 50.8 120.752V122.752C53.1829 122.752 55.3556 122.189 57.2924 121.045L56.2756 119.323ZM50.8 120.752C48.7454 120.752 46.9416 120.27 45.361 119.326L44.335 121.042C46.2531 122.189 48.4173 122.752 50.8 122.752V120.752ZM45.364 119.327C43.7545 118.358 42.5048 117.024 41.6062 115.305L39.8338 116.231C40.8979 118.267 42.4001 119.877 44.332 121.041L45.364 119.327ZM41.6021 115.297C40.6845 113.579 40.216 111.632 40.216 109.432H38.216C38.216 111.926 38.7501 114.202 39.8379 116.239L41.6021 115.297ZM40.216 109.432C40.216 107.583 40.5272 105.934 41.1322 104.47L39.2838 103.706C38.5662 105.442 38.216 107.356 38.216 109.432H40.216ZM41.1322 104.47C41.7364 103.008 42.6062 101.794 43.742 100.813L42.434 99.2995C41.0525 100.494 40.0023 101.968 39.2838 103.706L41.1322 104.47ZM42.3532 100.734L45.4252 104.062L46.8948 102.706L43.8228 99.3777L42.3532 100.734ZM45.4715 102.659C43.5935 104.442 42.632 106.632 42.632 109.176H44.632C44.632 107.197 45.3558 105.526 46.8485 104.109L45.4715 102.659ZM42.632 109.176C42.632 110.748 42.9617 112.184 43.6475 113.458L45.4085 112.51C44.8996 111.565 44.632 110.462 44.632 109.176H42.632ZM43.6475 113.458C44.3333 114.732 45.3093 115.733 46.5617 116.445L47.5503 114.707C46.6267 114.182 45.9174 113.455 45.4085 112.51L43.6475 113.458ZM46.5617 116.445C47.8184 117.16 49.2408 117.504 50.8 117.504V115.504C49.5432 115.504 48.4696 115.229 47.5503 114.707L46.5617 116.445ZM50.8 117.504C52.3408 117.504 53.7518 117.159 55.0063 116.445L54.0177 114.707C53.0962 115.231 52.0325 115.504 50.8 115.504V117.504ZM55.0063 116.445C56.2508 115.738 57.2337 114.755 57.9413 113.51L56.2027 112.522C55.673 113.453 54.9492 114.177 54.0177 114.707L55.0063 116.445ZM57.9525 113.49C58.6371 112.219 58.968 110.794 58.968 109.24H56.968C56.968 110.502 56.7015 111.595 56.1915 112.542L57.9525 113.49ZM58.968 109.24C58.968 107.599 58.615 106.09 57.8895 104.736L56.1265 105.68C56.681 106.715 56.968 107.894 56.968 109.24H58.968ZM57.008 104.208H50.448V106.208H57.008V104.208ZM62 81.3845L62.5692 82.2067L63 81.9085V81.3845H62ZM55.76 85.7045L55.1908 84.8823L54.76 85.1805V85.7045H55.76ZM55.76 90.4725H54.76V91.4725H55.76V90.4725ZM62 90.4725H63V89.4725H62V90.4725ZM62 95.6565V96.6565H63V95.6565H62ZM39.6 95.6565H38.6V96.6565H39.6V95.6565ZM40.592 80.8085L41.5019 81.2233L41.5042 81.2183L40.592 80.8085ZM52.048 77.4485L51.4933 78.2806L51.4967 78.2828L52.048 77.4485ZM54.8 80.8405L53.8829 81.2392L54.3701 82.3598L55.3722 81.6606L54.8 80.8405ZM62 75.8165H63V73.8993L61.4278 74.9964L62 75.8165ZM44.848 82.6965L45.6129 83.3406L45.6179 83.3347L45.6229 83.3286L44.848 82.6965ZM43.824 90.4725H42.824V91.4725H43.824V90.4725ZM51.632 90.4725V91.4725H52.632V90.4725H51.632ZM50.608 82.6965L51.3729 82.0524L50.608 82.6965ZM61.4308 80.5623L55.1908 84.8823L56.3292 86.5267L62.5692 82.2067L61.4308 80.5623ZM54.76 85.7045V85.9605H56.76V85.7045H54.76ZM54.76 85.9605V90.4725H56.76V85.9605H54.76ZM55.76 91.4725H62V89.4725H55.76V91.4725ZM61 90.4725V95.6565H63V90.4725H61ZM62 94.6565H39.6V96.6565H62V94.6565ZM40.6 95.6565V85.9605H38.6V95.6565H40.6ZM40.6 85.9605C40.6 84.0856 40.9126 82.516 41.5019 81.2233L39.6821 80.3937C38.9487 82.0023 38.6 83.8674 38.6 85.9605H40.6ZM41.5042 81.2183C42.0959 79.9011 42.9156 78.9283 43.9525 78.2553L42.8635 76.5777C41.4684 77.4833 40.4107 78.7718 39.6798 80.3987L41.5042 81.2183ZM43.9525 78.2553C44.9834 77.5861 46.228 77.2325 47.728 77.2325V75.2325C45.9 75.2325 44.2646 75.6683 42.8635 76.5777L43.9525 78.2553ZM47.728 77.2325C49.2228 77.2325 50.4636 77.5941 51.4933 78.2805L52.6027 76.6165C51.2004 75.6816 49.5612 75.2325 47.728 75.2325V77.2325ZM51.4967 78.2828C52.5108 78.9528 53.3105 79.9226 53.8829 81.2392L55.7171 80.4418C55.0095 78.8144 53.9745 77.5228 52.5993 76.6142L51.4967 78.2828ZM55.3722 81.6606L62.5722 76.6366L61.4278 74.9964L54.2278 80.0204L55.3722 81.6606ZM61 75.8165V81.3845H63V75.8165H61ZM47.728 80.4805C46.2364 80.4805 44.9633 80.9732 44.0731 82.0644L45.6229 83.3286C46.0554 82.7985 46.7023 82.4805 47.728 82.4805V80.4805ZM44.0831 82.0524C43.1913 83.1113 42.824 84.563 42.824 86.2485H44.824C44.824 84.8193 45.1393 83.903 45.6129 83.3406L44.0831 82.0524ZM42.824 86.2485V90.4725H44.824V86.2485H42.824ZM43.824 91.4725H51.632V89.4725H43.824V91.4725ZM52.632 90.4725V86.2485H50.632V90.4725H52.632ZM52.632 86.2485C52.632 84.563 52.2647 83.1113 51.3729 82.0524L49.8431 83.3406C50.3167 83.903 50.632 84.8193 50.632 86.2485H52.632ZM51.3729 82.0524C50.4675 80.9772 49.2054 80.4805 47.728 80.4805V82.4805C48.7252 82.4805 49.3831 82.7945 49.8431 83.3406L51.3729 82.0524ZM60.88 67.5812L61.7598 68.0566L61.7621 68.0524L60.88 67.5812ZM56.752 71.9652L57.2604 72.8264L57.2665 72.8228L57.2726 72.819L56.752 71.9652ZM44.88 71.9652L44.364 72.8218L44.367 72.8237L44.88 71.9652ZM40.72 67.5812L39.8379 68.0524L39.8402 68.0566L40.72 67.5812ZM44.88 50.6212L45.396 51.4778L45.4006 51.475L44.88 50.6212ZM56.752 50.6212L57.2726 49.7674L57.268 49.7647L56.752 50.6212ZM60.88 55.0052L61.7598 54.5299L60.88 55.0052ZM57.072 57.6933L57.9445 57.2046L57.9408 57.1981L57.937 57.1915L57.072 57.6933ZM54.512 55.1973L54.0177 56.0665L54.0242 56.0702L54.0307 56.0738L54.512 55.1973ZM47.088 55.1973L47.5693 56.0738L47.5758 56.0702L47.5823 56.0665L47.088 55.1973ZM44.56 57.6933L45.425 58.195L45.4288 58.1884L45.4325 58.1819L44.56 57.6933ZM44.56 64.8613L45.4325 64.3726L45.4288 64.3661L45.425 64.3595L44.56 64.8613ZM47.088 67.3893L46.5937 68.2585L46.6002 68.2622L46.6067 68.2658L47.088 67.3893ZM54.512 67.3893L54.9933 68.2658L54.9998 68.2622L55.0063 68.2585L54.512 67.3893ZM57.072 64.8613L57.937 65.363L57.9408 65.3564L57.9445 65.3499L57.072 64.8613ZM61.384 61.2772C61.384 63.4538 60.9162 65.3909 59.9979 67.1101L61.7621 68.0524C62.8492 66.0169 63.384 63.7514 63.384 61.2772H61.384ZM60.0002 67.1059C59.079 68.811 57.825 70.1397 56.2314 71.1115L57.2726 72.819C59.1777 71.6574 60.6756 70.0635 61.7598 68.0566L60.0002 67.1059ZM56.2436 71.1041C54.6376 72.0523 52.8312 72.5332 50.8 72.5332V74.5332C53.1634 74.5332 55.3251 73.9689 57.2604 72.8264L56.2436 71.1041ZM50.8 72.5332C48.7687 72.5332 46.9751 72.0523 45.393 71.1068L44.367 72.8237C46.2835 73.9689 48.4367 74.5332 50.8 74.5332V72.5332ZM45.396 71.1087C43.7818 70.1362 42.5193 68.808 41.5998 67.1059L39.8402 68.0566C40.926 70.0665 42.4369 71.6609 44.364 72.8218L45.396 71.1087ZM41.6021 67.1101C40.6838 65.3909 40.216 63.4538 40.216 61.2772H38.216C38.216 63.7514 38.7508 66.0169 39.8379 68.0524L41.6021 67.1101ZM40.216 61.2772C40.216 59.1005 40.6839 57.176 41.5998 55.4806L39.8402 54.5299C38.7508 56.5465 38.216 58.8033 38.216 61.2772H40.216ZM41.5998 55.4806C42.5193 53.7785 43.7818 52.4502 45.396 51.4778L44.364 49.7647C42.4369 50.9256 40.926 52.52 39.8402 54.5299L41.5998 55.4806ZM45.4006 51.475C46.9817 50.5109 48.7725 50.0212 50.8 50.0212V48.0212C48.4328 48.0212 46.2769 48.5982 44.3594 49.7674L45.4006 51.475ZM50.8 50.0212C52.8274 50.0212 54.631 50.511 56.236 51.4778L57.268 49.7647C55.3317 48.5982 53.1673 48.0212 50.8 48.0212V50.0212ZM56.2314 51.475C57.825 52.4467 59.079 53.7755 60.0002 55.4806L61.7598 54.5299C60.6756 52.523 59.1777 50.9291 57.2726 49.7674L56.2314 51.475ZM60.0002 55.4806C60.9161 57.176 61.384 59.1005 61.384 61.2772H63.384C63.384 58.8033 62.8492 56.5465 61.7598 54.5299L60.0002 55.4806ZM58.968 61.2772C58.968 59.7979 58.6322 58.4327 57.9445 57.2046L56.1995 58.1819C56.7065 59.0871 56.968 60.1113 56.968 61.2772H58.968ZM57.937 57.1915C57.2263 55.9662 56.2398 55.0051 54.9933 54.3207L54.0307 56.0738C54.9602 56.5841 55.6803 57.287 56.207 58.195L57.937 57.1915ZM55.0063 54.328C53.7518 53.6146 52.3408 53.2692 50.8 53.2692V55.2692C52.0325 55.2692 53.0962 55.5425 54.0177 56.0665L55.0063 54.328ZM50.8 53.2692C49.2592 53.2692 47.8482 53.6146 46.5937 54.328L47.5823 56.0665C48.5038 55.5425 49.5675 55.2692 50.8 55.2692V53.2692ZM46.6067 54.3207C45.3572 55.0067 44.3778 55.9719 43.6875 57.2046L45.4325 58.1819C45.9369 57.2812 46.6428 56.5825 47.5693 56.0738L46.6067 54.3207ZM43.695 57.1915C42.9815 58.4217 42.632 59.7916 42.632 61.2772H44.632C44.632 60.1175 44.9012 59.0981 45.425 58.195L43.695 57.1915ZM42.632 61.2772C42.632 62.7629 42.9815 64.1328 43.695 65.363L45.425 64.3595C44.9012 63.4564 44.632 62.437 44.632 61.2772H42.632ZM43.6875 65.3499C44.3761 66.5794 45.3513 67.5521 46.5937 68.2585L47.5823 66.52C46.6487 65.9891 45.9386 65.2764 45.4325 64.3726L43.6875 65.3499ZM46.6067 68.2658C47.8589 68.9533 49.2652 69.2852 50.8 69.2852V67.2852C49.5615 67.2852 48.4931 67.0199 47.5693 66.5127L46.6067 68.2658ZM50.8 69.2852C52.3348 69.2852 53.7411 68.9533 54.9933 68.2658L54.0307 66.5127C53.1069 67.0199 52.0385 67.2852 50.8 67.2852V69.2852ZM55.0063 68.2585C56.2458 67.5537 57.2281 66.5852 57.937 65.363L56.207 64.3595C55.6785 65.2706 54.9542 65.9874 54.0177 66.52L55.0063 68.2585ZM57.9445 65.3499C58.6322 64.1218 58.968 62.7566 58.968 61.2772H56.968C56.968 62.4432 56.7065 63.4674 56.1995 64.3726L57.9445 65.3499ZM59.728 42.6612L60.4351 43.3684L60.4393 43.3641L59.728 42.6612ZM39.6 45.3173H38.6V46.3173H39.6V45.3173ZM39.6 40.1332V39.1332H38.6V40.1332H39.6ZM56.528 31.4292L57.1924 30.6818L57.1842 30.6746L56.528 31.4292ZM39.6 30.1492H38.6V31.1492H39.6V30.1492ZM39.6 25.0293V24.0293H38.6V25.0293H39.6ZM59.728 27.7172L59.0167 28.4201L59.0209 28.4244L59.728 27.7172ZM61.384 35.1732C61.384 38.1847 60.5559 40.4007 59.0167 41.9584L60.4393 43.3641C62.4415 41.3378 63.384 38.5618 63.384 35.1732H61.384ZM59.0209 41.9541C57.4909 43.4842 55.2501 44.3173 52.144 44.3173V46.3173C55.6086 46.3173 58.4238 45.3797 60.4351 43.3684L59.0209 41.9541ZM52.144 44.3173H39.6V46.3173H52.144V44.3173ZM40.6 45.3173V40.1332H38.6V45.3173H40.6ZM39.6 41.1332H51.952V39.1332H39.6V41.1332ZM51.952 41.1332C54.0708 41.1332 55.8459 40.6976 57.1026 39.6548C58.395 38.5824 58.968 37.0136 58.968 35.1413H56.968C56.968 36.5969 56.5384 37.5241 55.8254 38.1157C55.0767 38.7369 53.8439 39.1332 51.952 39.1332V41.1332ZM58.968 35.1413C58.968 33.3147 58.4194 31.7725 57.1924 30.6818L55.8636 32.1767C56.5566 32.7927 56.968 33.7252 56.968 35.1413H58.968ZM57.1842 30.6746C55.9399 29.5927 54.1277 29.1492 51.952 29.1492V31.1492C53.915 31.1492 55.1534 31.5591 55.8718 32.1839L57.1842 30.6746ZM51.952 29.1492H39.6V31.1492H51.952V29.1492ZM40.6 30.1492V25.0293H38.6V30.1492H40.6ZM39.6 26.0293H52.144V24.0293H39.6V26.0293ZM52.144 26.0293C55.2468 26.0293 57.4861 26.8711 59.0167 28.4201L60.4393 27.0144C58.4286 24.9794 55.6118 24.0293 52.144 24.0293V26.0293ZM59.0209 28.4244C60.5557 29.9591 61.384 32.1612 61.384 35.1732H63.384C63.384 31.7853 62.4417 29.0167 60.4351 27.0101L59.0209 28.4244ZM40.592 5.0585L41.5019 5.47331L41.5042 5.46832L40.592 5.0585ZM52.048 1.6665L52.5925 0.82769L52.5858 0.823433L52.048 1.6665ZM54.864 5.0585L55.7789 4.65485L55.7762 4.64868L54.864 5.0585ZM55.824 14.7225H54.824V15.7225H55.824V14.7225ZM62 14.7225H63V13.7225H62V14.7225ZM62 19.9065V20.9065H63V19.9065H62ZM39.6 19.9065H38.6V20.9065H39.6V19.9065ZM50.608 6.9465L51.3829 6.31437L51.3779 6.30833L51.3729 6.30236L50.608 6.9465ZM44.848 6.9465L45.6129 7.59064L45.6179 7.58467L45.6229 7.57863L44.848 6.9465ZM43.824 14.7225H42.824V15.7225H43.824V14.7225ZM51.6 14.7225V15.7225H52.6V14.7225H51.6ZM40.6 10.2105C40.6 8.3356 40.9126 6.76599 41.5019 5.47331L39.6821 4.64368C38.9487 6.25234 38.6 8.11739 38.6 10.2105H40.6ZM41.5042 5.46832C42.0959 4.15115 42.9156 3.17833 43.9525 2.50528L42.8635 0.827721C41.4684 1.73334 40.4107 3.02184 39.6798 4.64868L41.5042 5.46832ZM43.9525 2.50528C44.9834 1.83606 46.228 1.4825 47.728 1.4825V-0.517502C45.9 -0.517502 44.2646 -0.0817337 42.8635 0.827721L43.9525 2.50528ZM47.728 1.4825C49.2035 1.4825 50.4522 1.83463 51.5102 2.50956L52.5858 0.823433C51.1691 -0.080307 49.5378 -0.517502 47.728 -0.517502V1.4825ZM51.5035 2.50528C52.5404 3.17833 53.3601 4.15115 53.9518 5.46832L55.7762 4.64868C55.0453 3.02184 53.9876 1.73334 52.5925 0.827721L51.5035 2.50528ZM53.9491 5.46214C54.5208 6.75795 54.824 8.33166 54.824 10.2105H56.824C56.824 8.12134 56.4872 6.26038 55.7789 4.65486L53.9491 5.46214ZM54.824 10.2105V14.7225H56.824V10.2105H54.824ZM55.824 15.7225H62V13.7225H55.824V15.7225ZM61 14.7225V19.9065H63V14.7225H61ZM62 18.9065H39.6V20.9065H62V18.9065ZM40.6 19.9065V10.2105H38.6V19.9065H40.6ZM52.6 10.4985C52.6 8.81922 52.2461 7.37253 51.3829 6.31437L49.8331 7.57863C50.2926 8.14181 50.6 9.06311 50.6 10.4985H52.6ZM51.3729 6.30236C50.4675 5.22721 49.2054 4.7305 47.728 4.7305V6.7305C48.7252 6.7305 49.3831 7.04446 49.8431 7.59064L51.3729 6.30236ZM47.728 4.7305C46.2364 4.7305 44.9633 5.22321 44.0731 6.31437L45.6229 7.57863C46.0554 7.04845 46.7023 6.7305 47.728 6.7305V4.7305ZM44.0831 6.30236C43.1913 7.36134 42.824 8.81303 42.824 10.4985H44.824C44.824 9.06931 45.1393 8.15299 45.6129 7.59064L44.0831 6.30236ZM42.824 10.4985V14.7225H44.824V10.4985H42.824ZM43.824 15.7225H51.6V13.7225H43.824V15.7225ZM52.6 14.7225V10.4985H50.6V14.7225H52.6Z" fill="white"/>
</svg>
